<svg xmlns="http://www.w3.org/2000/svg" width="24" height="24" fill="none"><path fill="url(#github-icon_svg__a)" fillRule="evenodd" d="M12.002.957C5.75.957.68 6.027.68 12.28c0 5.003 3.244 9.247 7.743 10.744.566.105.773-.245.773-.545 0-.27-.01-1.162-.015-2.108-3.15.685-3.815-1.336-3.815-1.336-.515-1.308-1.257-1.656-1.257-1.656-1.027-.703.077-.689.077-.689 1.137.08 1.736 1.167 1.736 1.167 1.01 1.731 2.649 1.23 3.295.942.102-.732.395-1.232.719-1.515-2.515-.286-5.159-1.257-5.159-5.595 0-1.236.443-2.246 1.167-3.04-.118-.285-.505-1.436.11-2.996 0 0 .95-.304 3.114 1.16a10.85 10.85 0 0 1 2.834-.38c.962.004 1.932.13 2.837.38 2.16-1.465 3.11-1.16 3.11-1.16.617 1.56.23 2.711.112 2.996.726.793 1.165 1.803 1.165 3.04 0 4.348-2.649 5.306-5.17 5.586.406.352.768 1.04.768 2.097 0 1.515-.013 2.734-.013 3.107 0 .302.204.655.778.543 4.496-1.498 7.736-5.741 7.736-10.742 0-6.254-5.07-11.323-11.323-11.323Z" clipRule="evenodd"></path><path fill="#181616" d="M4.968 17.214c-.025.056-.114.073-.195.034-.082-.036-.128-.113-.101-.17.024-.058.113-.074.195-.035.082.037.129.115.1.17Zm.458.511c-.054.05-.16.027-.23-.052-.075-.079-.089-.184-.034-.235.056-.05.158-.026.232.052.074.08.089.185.032.236Zm.447.652c-.07.049-.183.004-.253-.097s-.07-.222.002-.27c.07-.049.181-.005.253.095.069.102.069.223-.002.272Zm.611.63c-.062.069-.194.05-.29-.043-.1-.091-.127-.22-.065-.29.063-.068.196-.049.293.044.099.091.129.221.063.29Zm.844.366c-.028.089-.155.13-.283.091-.128-.038-.212-.142-.186-.232.026-.09.154-.131.284-.09.128.038.212.141.185.231Zm.927.068c.003.093-.106.17-.24.172-.136.004-.246-.072-.247-.164 0-.094.107-.17.242-.173.135-.003.245.072.245.165Zm.862-.147c.016.091-.078.185-.211.21-.132.024-.253-.033-.27-.123-.016-.093.079-.187.21-.21.134-.024.254.031.27.123Z"></path><defs><linearGradient id="github-icon_svg__a" x1="-0.06" x2="16.458" y1="1.807" y2="16.39" gradientUnits="userSpaceOnUse"><stop stop-color="#fff" stop-opacity="0"></stop><stop offset="1" stop-color="#fff"></stop></linearGradient></defs></svg>