<svg xmlns="http://www.w3.org/2000/svg" width="24" height="24" fill="none"><path fill="url(#slack-icon_svg__a)" d="M5.11 15.135a2.501 2.501 0 0 1-2.496 2.497 2.503 2.503 0 0 1-2.497-2.497 2.503 2.503 0 0 1 2.497-2.497H5.11v2.497Zm1.257 0a2.503 2.503 0 0 1 2.497-2.497 2.503 2.503 0 0 1 2.497 2.497v6.25a2.503 2.503 0 0 1-2.497 2.497 2.503 2.503 0 0 1-2.497-2.497v-6.25Z"></path><path fill="url(#slack-icon_svg__b)" d="M8.864 5.11a2.502 2.502 0 0 1-2.497-2.495A2.503 2.503 0 0 1 8.864.118a2.503 2.503 0 0 1 2.497 2.497v2.496H8.864Zm0 1.258a2.503 2.503 0 0 1 2.497 2.497 2.503 2.503 0 0 1-2.497 2.497h-6.25A2.503 2.503 0 0 1 .117 8.865a2.503 2.503 0 0 1 2.497-2.497h6.25Z"></path><path fill="url(#slack-icon_svg__c)" d="M18.889 8.865a2.502 2.502 0 0 1 2.495-2.497 2.503 2.503 0 0 1 2.497 2.497 2.503 2.503 0 0 1-2.497 2.497h-2.495V8.865Zm-1.258 0a2.503 2.503 0 0 1-2.497 2.497 2.503 2.503 0 0 1-2.497-2.497v-6.25A2.503 2.503 0 0 1 15.134.118a2.503 2.503 0 0 1 2.497 2.497v6.25Z"></path><path fill="url(#slack-icon_svg__d)" d="M15.134 18.89a2.501 2.501 0 0 1 2.497 2.495 2.503 2.503 0 0 1-2.497 2.497 2.503 2.503 0 0 1-2.497-2.497V18.89h2.497Zm0-1.258a2.503 2.503 0 0 1-2.497-2.497 2.503 2.503 0 0 1 2.497-2.497h6.25a2.503 2.503 0 0 1 2.497 2.497 2.503 2.503 0 0 1-2.497 2.497h-6.25Z"></path><defs><linearGradient id="slack-icon_svg__a" x1="-0.25" x2="8.13" y1="13.07" y2="20.287" gradientUnits="userSpaceOnUse"><stop stop-color="#fff" stop-opacity="0"></stop><stop offset="1" stop-color="#fff"></stop></linearGradient><linearGradient id="slack-icon_svg__b" x1="-0.25" x2="8.13" y1="0.551" y2="7.767" gradientUnits="userSpaceOnUse"><stop stop-color="#fff" stop-opacity="0"></stop><stop offset="1" stop-color="#fff"></stop></linearGradient><linearGradient id="slack-icon_svg__c" x1="12.27" x2="20.65" y1="0.551" y2="7.767" gradientUnits="userSpaceOnUse"><stop stop-color="#fff" stop-opacity="0"></stop><stop offset="1" stop-color="#fff"></stop></linearGradient><linearGradient id="slack-icon_svg__d" x1="12.27" x2="20.65" y1="13.07" y2="20.287" gradientUnits="userSpaceOnUse"><stop stop-color="#fff" stop-opacity="0"></stop><stop offset="1" stop-color="#fff"></stop></linearGradient></defs></svg>